<?xml version="1.0" encoding="utf-8"?>
<!-- Generator: Adobe Illustrator 17.0.0, SVG Export Plug-In . SVG Version: 6.00 Build 0)  -->
<!DOCTYPE svg PUBLIC "-//W3C//DTD SVG 1.1//EN" "http://www.w3.org/Graphics/SVG/1.1/DTD/svg11.dtd">
<svg version="1.1" id="Layer_1" xmlns="http://www.w3.org/2000/svg" xmlns:xlink="http://www.w3.org/1999/xlink" x="0px" y="0px"
	 width="738px" height="188px" viewBox="0 0 738 188" enable-background="new 0 0 738 188" xml:space="preserve">
<path fill="#FFFFFF" d="M604.189,13.145c0-1.5-0.187-5.437-4.75-5.375c-4.562,0.063-34.875,1.625-37,1.813
	c-2.125,0.187-3.75,2.312-0.062,2.625c3.687,0.312,19.874,1.625,19.874,28.313c0,1.787,0.13,103.203-0.062,87.562
	c0.398,32.464-12.126,44.043-26.062,44c-21.939-0.067-33.563-26.313-33.563-51.438c0-27.875,15.526-46.345,32.125-45.375
	c22.618,1.323,27.438,19.845,27.5,52.751l0.093-54.625c0.094,6.656,0.095,7.625-2.905,5.312c-2.459-1.895-14.064-9.086-28.625-9.125
	c-23.814-0.064-53.063,16.916-53.063,52.562c0,37.75,26.75,55.688,54.5,55.688c13.5,0,23.098-6.042,26.5-8.125
	c3.842-2.352,3.514-2.179,4.219,1.312c0.541,2.685,0.218,7.501,7.031,6.813c7.746-0.781,25.563-3,29.313-3.75
	c3.583-0.717,2.728-3.054-0.5-3.438c-2.205-0.262-14.563,1.188-14.563-37.062S604.189,13.145,604.189,13.145z"/>
<path fill="#FFFFFF" d="M133.493,15.382c1.873,0.659,7.68,2.891,9.513-1.453c1.833-4.345,0.649-1.366,1.268-2.809
	c0.917-2.139,5.22-3.95,6.052,1.069c0.831,5.019,3.783,48.393,3.917,50.711c0.296,5.109-6.6,5.622-6.979,0.573
	c-0.501-6.688-13.89-50.706-50.452-49.96c-32.589,0.666-54.053,38.367-52.793,87.111c1.177,45.568,23.147,70.672,59.179,69.936
	c34.708-0.708,44.364-27.106,49.478-43.253c2.121-6.695,8.34-4.831,6.884,1.284c-6.411,26.938-26.782,49.748-63.609,50.5
	c-40.272,0.822-83.711-29.609-84.809-83.392C10.011,40.325,53.765,8.263,96.951,7.381C115.233,7.008,127.086,13.127,133.493,15.382z
	"/>
<g>
	<g>
		<rect x="617.416" y="8.478" fill="#EB2D2F" width="26.267" height="52.533"/>
		<path fill="#EB2D2F" d="M630.549,34.744"/>
	</g>
	<path fill="#EB2D2F" d="M689.119,34.733l-0.568-0.279c-0.882-0.414-0.744-1.158-0.606-1.655c0.137-0.496,1.61-5.659,1.61-5.659
		s-3.857,0.865-4.76,1.004c-0.717,0.111-0.965-0.22-1.186-0.717c-0.22-0.496-1.158-2.758-1.158-2.758s-4.724,5.23-4.826,5.323
		c-0.91,0.827-1.792,0.193-1.627-0.772c0.151-0.881,2.427-11.335,2.427-11.335s-2.51,1.49-3.337,1.986
		c-0.827,0.496-1.269,0.414-1.71-0.386c-0.441-0.8-3.537-7.005-3.537-7.005h0.006c0,0-3.096,6.205-3.537,7.005
		c-0.441,0.8-0.883,0.882-1.71,0.386c-0.827-0.496-3.337-1.986-3.337-1.986s2.276,10.454,2.427,11.335
		c0.165,0.965-0.717,1.599-1.627,0.772c-0.102-0.093-4.826-5.323-4.826-5.323s-0.938,2.262-1.158,2.758
		c-0.221,0.497-0.469,0.828-1.186,0.717c-0.903-0.139-4.914-1.004-4.914-1.004s1.627,5.163,1.765,5.659
		c0.137,0.497,0.275,1.241-0.607,1.655l-0.568,0.279H689.119z"/>
	<path fill="#EB2D2F" d="M650.569,34.733l-0.894,0.438c0,0,8.941,7.727,9.244,8.003c0.303,0.276,0.883,0.518,0.441,1.842
		c-0.441,1.324-1.075,3.116-1.075,3.116s8.273-1.682,9.156-1.875c0.882-0.193,1.627,0.11,1.627,0.993
		c0,0.882-0.359,9.735-0.359,9.735h2.27c0,0-0.359-8.853-0.359-9.735c0-0.883,0.745-1.186,1.627-0.993
		c0.883,0.193,9.156,1.875,9.156,1.875s-0.634-1.792-1.075-3.116c-0.442-1.324,0.137-1.566,0.441-1.842
		c0.303-0.276,9.244-8.003,9.244-8.003l-0.894-0.438H650.569z"/>
	<path fill="#EB2D2F" d="M670.979,56.985c0,0-0.359-8.853-0.359-9.735c0-0.883,0.745-1.186,1.627-0.993
		c0.883,0.193,9.156,1.875,9.156,1.875s-0.634-1.792-1.075-3.116c-0.442-1.324,0.137-1.566,0.441-1.842
		c0.303-0.276,9.244-8.003,9.244-8.003l-1.462-0.717c-0.882-0.414-0.744-1.158-0.606-1.655c0.137-0.496,1.61-5.659,1.61-5.659
		s-3.857,0.865-4.76,1.004c-0.717,0.111-0.965-0.22-1.186-0.717c-0.22-0.496-1.158-2.758-1.158-2.758s-4.724,5.23-4.826,5.323
		c-0.91,0.827-1.792,0.193-1.627-0.772c0.151-0.881,2.427-11.335,2.427-11.335s-2.51,1.49-3.337,1.986
		c-0.827,0.496-1.269,0.414-1.71-0.386c-0.441-0.8-3.537-7.005-3.537-7.005h0.006c0,0-3.096,6.205-3.537,7.005
		c-0.441,0.8-0.883,0.882-1.71,0.386c-0.827-0.496-3.337-1.986-3.337-1.986s2.276,10.454,2.427,11.335
		c0.165,0.965-0.717,1.599-1.627,0.772c-0.102-0.093-4.826-5.323-4.826-5.323s-0.938,2.262-1.158,2.758
		c-0.221,0.497-0.469,0.828-1.186,0.717c-0.903-0.139-4.914-1.004-4.914-1.004s1.627,5.163,1.765,5.659
		c0.137,0.497,0.275,1.241-0.607,1.655l-1.462,0.717c0,0,8.941,7.727,9.244,8.003c0.303,0.276,0.883,0.518,0.441,1.842
		c-0.441,1.324-1.075,3.116-1.075,3.116s8.273-1.682,9.156-1.875c0.882-0.193,1.627,0.11,1.627,0.993
		c0,0.882-0.359,9.735-0.359,9.735H670.979z"/>
	<g>
		<rect x="696.179" y="8.478" fill="#EB2D2F" width="26.267" height="52.533"/>
		<path fill="#EB2D2F" d="M709.312,34.744"/>
	</g>
</g>
<path fill="#FFFFFF" d="M220.781,99.499c0.267,10.994-1.701,14.289-8.462,17.627c-6.173,3.049-23.5,5.623-25.696,6.123
	c-6.989,1.592-26.647,6.577-26.214,27.177c0.427,20.334,20.537,27.202,34.581,26.862c13.61-0.33,21.588-6.179,25.146-9.062
	c2.106-1.707,1.92-1.281,3.676,0.677c1.947,2.173,8.714,8.665,24.349,8.6c15.88-0.066,18.253-7.587,19.171-9.898
	c1.233-3.105-2.092-4.801-3.288-1.991c-1.987,4.665-6.001,5.92-8.751,5.894c-3.061-0.028-12.069-0.757-12.133-23.988
	c0,0-0.011-47.868-0.019-50.657c0-15.605-11.911-28.37-43.435-28.37c-33.919,0-34.091,16.712-34.313,20.856
	c-0.251,4.692,2.209,9.643,10.735,9.668c7.686,0.023,9.502-8.323,10.589-11.522c1.133-3.332,1.366-13.64,15.074-13.426
	c11.709,0,18.959,10.306,18.959,24.994l0.25,44.312c0,15.5-8,27.862-19.779,27.862c-14.177-0.037-17.665-11.83-17.8-17.393
	c-0.135-5.562,2.906-17.201,16.897-25.287c0,0,6.488-4.189,18.92-8.946c1.125-0.25,1.637-0.047,1.637,2.578L220.781,99.499z"/>
<path fill="#FFFFFF" d="M454.281,99.499c0.267,10.994-1.701,14.289-8.462,17.627c-6.173,3.049-23.5,5.623-25.696,6.123
	c-6.989,1.592-26.647,6.577-26.214,27.177c0.427,20.334,20.537,27.202,34.581,26.862c13.61-0.33,21.588-6.179,25.146-9.062
	c2.106-1.707,1.92-1.281,3.676,0.677c1.947,2.173,8.714,8.665,24.349,8.6c15.88-0.066,18.253-7.587,19.171-9.898
	c1.233-3.105-2.092-4.801-3.288-1.991c-1.987,4.665-6.001,5.92-8.751,5.894c-3.061-0.028-12.069-0.757-12.133-23.988
	c0,0-0.011-47.868-0.019-50.657c0-15.605-11.911-28.37-43.435-28.37c-33.92,0-34.091,16.712-34.313,20.856
	c-0.251,4.692,2.209,9.643,10.735,9.668c7.686,0.023,9.502-8.323,10.589-11.522c1.133-3.332,1.366-13.64,15.074-13.426
	c11.709,0,18.959,10.306,18.959,24.994l0.25,44.312c0,15.5-8,27.862-19.779,27.862c-14.177-0.037-17.665-11.83-17.8-17.393
	c-0.135-5.562,2.906-17.201,16.897-25.287c0,0,6.488-4.189,18.92-8.946c1.125-0.25,1.637-0.047,1.637,2.578L454.281,99.499z"/>
<path fill="#FFFFFF" d="M684.781,99.499c0.267,10.994-1.701,14.289-8.463,17.627c-6.173,3.049-23.5,5.623-25.696,6.123
	c-6.989,1.592-26.647,6.577-26.214,27.177c0.427,20.334,20.537,27.202,34.581,26.862c13.61-0.33,21.588-6.179,25.146-9.062
	c2.107-1.707,1.921-1.281,3.676,0.677c1.947,2.173,8.714,8.665,24.349,8.6c15.88-0.066,18.253-7.587,19.171-9.898
	c1.233-3.105-2.092-4.801-3.288-1.991c-1.987,4.665-6.001,5.92-8.751,5.894c-3.061-0.028-12.069-0.757-12.133-23.988
	c0,0-0.011-47.868-0.019-50.657c0-15.605-11.911-28.37-43.435-28.37c-33.92,0-34.091,16.712-34.313,20.856
	c-0.251,4.692,2.209,9.643,10.735,9.668c7.686,0.023,9.502-8.323,10.589-11.522c1.133-3.332,1.366-13.64,15.074-13.426
	c11.709,0,18.959,10.306,18.959,24.994l0.25,44.312c0,15.5-8,27.862-19.779,27.862c-14.177-0.037-17.665-11.83-17.8-17.393
	c-0.135-5.562,2.906-17.201,16.897-25.287c0,0,6.488-4.189,18.92-8.946c1.125-0.25,1.637-0.047,1.637,2.578L684.781,99.499z"/>
<path fill="#FFFFFF" d="M352.758,146.41c0.007,17.411-5.062,23.047-10.993,24.225c-5.489,1.092-4.324,3.738-1.752,3.724
	c1.14-0.006,46.635,0.048,46.697,0.047c3.816-0.003,6.441-2.455-0.328-3.997c-4.129-0.94-11.028-5.64-11.035-27.527l-0.097-40.478
	c-0.075-9.672,1.003-34.063-37.03-34.063c-19.425,0-30.8,9.853-31.925,10.728c-1.746,1.358-2.5,2-3.274-0.574
	c-0.593-1.969-1.629-5.25-2.214-6.954c-0.586-1.705-1.295-3.14-4.99-2.623c-3.695,0.517-25.854,4.019-29.536,4.934
	c-3.682,0.915-2.704,2.473-0.038,2.917c2.666,0.445,14.591,1.413,14.522,22.094c-0.07,20.68-0.022,43.269-0.022,43.269
	c0.118,24.949-5.175,27.256-9.786,28.527c-6.005,1.656-3.206,3.744-0.328,3.747c0.062,0.001,44.808-0.029,45.947-0.047
	c3.073-0.048,4.425-2.819-1.751-3.849c-5.965-0.994-11.626-4.502-11.493-24.1c0.013-1.932,0.004-23.669-0.052-27.627
	c-0.148-10.386-2.59-43.004,26.82-43.286c20.526-0.664,22.5,16.48,22.616,27.878L352.758,146.41z"/>
</svg>
